<svg xmlns="http://www.w3.org/2000/svg" width="432" height="216" viewBox="0 0 432 216"><path fill="none" d="M0 0h432v216H0z"/><path d="M36.102 168.971h-5.094l-2.475 5.897h-1.827l6.92-15.731 6.744 15.731h-1.837l-2.431-5.897zm-.661-1.562l-1.848-4.368-1.903 4.368h3.751zm12.593.737l4.775 6.722h-2.046l-4.533-6.591h-.43v6.591h-1.683v-15.017h2.431c1.595 0 2.794.274 3.598.813 1.111.748 1.661 1.881 1.661 3.399 0 1.154-.341 2.09-1.023 2.828-.682.738-1.595 1.156-2.75 1.255zm-2.234-1.341h1.045c2.211 0 3.312-.914 3.312-2.74 0-1.771-1.122-2.651-3.355-2.651H45.8v5.391zm14.685-5.392v13.455h-1.683v-13.455h-3.631v-1.562h8.966v1.562h-3.652zm18.768 4.896l3.146 4.039a23.298 23.298 0 0 0 1.706-1.98l1.21 1.012a18.032 18.032 0 0 1-1.914 2.223l2.552 3.268h-2.101l-1.628-2.09c-1.771 1.584-3.377 2.375-4.83 2.375-1.332 0-2.432-.483-3.29-1.44a3.96 3.96 0 0 1-1.056-2.739c0-1.386.671-2.617 2.024-3.697.308-.252.924-.682 1.837-1.286-.99-1.331-1.485-2.398-1.485-3.212 0-.936.308-1.705.924-2.288.627-.595 1.408-.892 2.354-.892.913 0 1.672.275 2.277.836.605.562.913 1.287.913 2.189 0 .869-.385 1.693-1.144 2.453-.285.283-.78.69-1.495 1.229zm-1.353.914l-.22.143c-.847.55-1.485 1.023-1.925 1.419-.715.649-1.067 1.354-1.067 2.112 0 .824.33 1.519.99 2.09a2.502 2.502 0 0 0 1.694.638c1.045 0 2.321-.704 3.851-2.103l-3.323-4.299zm.385-2.135c.737-.539 1.188-.891 1.331-1.033.451-.451.682-.936.682-1.464 0-.924-.704-1.551-1.628-1.551-.462 0-.858.165-1.177.483a1.578 1.578 0 0 0-.473 1.166c0 .451.198.947.594 1.485l.671.914zm17.247 9.78v-15.017h3.081c1.573 0 2.86.23 3.861.682a7.005 7.005 0 0 1 3.367 3.156c.583 1.09.88 2.312.88 3.664 0 2.388-.88 4.313-2.64 5.776-1.397 1.155-3.234 1.738-5.49 1.738h-3.059v.001zm1.683-1.561h1.463c1.771 0 3.212-.463 4.302-1.375 1.364-1.145 2.046-2.662 2.046-4.565 0-1.287-.33-2.421-.99-3.423-1.111-1.682-2.905-2.529-5.358-2.529h-1.463v11.892zm22.02-11.894h-6.095v4.456h5.93v1.562h-5.93v5.875h6.095v1.562h-7.778V159.85h7.778v1.563zM118.201 156l-3.234 2.629-.968-.715 2.695-2.915 1.507 1.001zm17.248 5.083v2.08c-.638-.604-1.232-1.045-1.782-1.32a6.128 6.128 0 0 0-2.761-.671 5.79 5.79 0 0 0-3.158.924 6.143 6.143 0 0 0-2.222 2.465 6.408 6.408 0 0 0-.682 2.871c0 1.859.693 3.389 2.068 4.577 1.199 1.046 2.542 1.562 4.004 1.562 1.617 0 3.125-.659 4.533-1.979v2.091c-1.419.979-2.926 1.463-4.521 1.463a7.59 7.59 0 0 1-3.598-.902 7.66 7.66 0 0 1-3.3-3.279 7.553 7.553 0 0 1-.88-3.553c0-1.364.341-2.641 1.023-3.84a7.936 7.936 0 0 1 2.805-2.86 7.716 7.716 0 0 1 4.038-1.11c1.539-.004 3.014.491 4.433 1.481zm11.513-1.485a7.415 7.415 0 0 1 3.884 1.045 7.758 7.758 0 0 1 2.85 2.838 7.41 7.41 0 0 1 1.067 3.896 7.547 7.547 0 0 1-1.023 3.84 7.712 7.712 0 0 1-2.816 2.827 7.783 7.783 0 0 1-4.049 1.1 7.663 7.663 0 0 1-3.883-1.056c-1.221-.715-2.167-1.661-2.85-2.849-.671-1.188-1.012-2.508-1.012-3.961 0-2.135.825-3.982 2.476-5.534 1.484-1.409 3.277-2.124 5.356-2.146zm-.01 1.573c-1.848-.011-3.389.704-4.632 2.146-1.001 1.154-1.496 2.485-1.496 3.972 0 1.728.572 3.202 1.727 4.423 1.177 1.243 2.619 1.859 4.346 1.859a6.123 6.123 0 0 0 3.146-.858 5.986 5.986 0 0 0 2.267-2.333 6.217 6.217 0 0 0 .759-3.003c0-1.76-.627-3.256-1.87-4.478-1.156-1.133-2.575-1.717-4.247-1.728zm16.462 6.975l4.775 6.722h-2.046l-4.533-6.591h-.429v6.591h-1.683v-15.017h2.431c1.595 0 2.794.274 3.598.813 1.111.748 1.661 1.881 1.661 3.399 0 1.154-.341 2.09-1.023 2.828-.683.738-1.596 1.156-2.751 1.255zm-2.234-1.341h1.045c2.211 0 3.312-.914 3.312-2.74 0-1.771-1.122-2.651-3.355-2.651h-1.001l-.001 5.391zm28.515-5.722v2.08c-.638-.604-1.232-1.045-1.782-1.32a6.128 6.128 0 0 0-2.761-.671 5.79 5.79 0 0 0-3.158.924 6.143 6.143 0 0 0-2.222 2.465 6.408 6.408 0 0 0-.682 2.871c0 1.859.693 3.389 2.068 4.577 1.199 1.046 2.542 1.562 4.004 1.562 1.617 0 3.125-.659 4.533-1.979v2.091c-1.419.979-2.926 1.463-4.521 1.463a7.59 7.59 0 0 1-3.598-.902 7.66 7.66 0 0 1-3.3-3.279 7.553 7.553 0 0 1-.88-3.553c0-1.364.341-2.641 1.023-3.84a7.936 7.936 0 0 1 2.805-2.86 7.716 7.716 0 0 1 4.038-1.11c1.539-.004 3.014.491 4.433 1.481zm11.513-1.485a7.415 7.415 0 0 1 3.884 1.045 7.758 7.758 0 0 1 2.85 2.838 7.41 7.41 0 0 1 1.067 3.896 7.547 7.547 0 0 1-1.023 3.84 7.712 7.712 0 0 1-2.816 2.827 7.783 7.783 0 0 1-4.049 1.1 7.663 7.663 0 0 1-3.883-1.056c-1.221-.715-2.167-1.661-2.85-2.849-.671-1.188-1.012-2.508-1.012-3.961 0-2.135.825-3.982 2.476-5.534 1.484-1.409 3.277-2.124 5.356-2.146zm-.01 1.573c-1.848-.011-3.389.704-4.632 2.146-1.001 1.154-1.496 2.485-1.496 3.972 0 1.728.572 3.202 1.727 4.423 1.177 1.243 2.619 1.859 4.346 1.859a6.123 6.123 0 0 0 3.146-.858 5.986 5.986 0 0 0 2.267-2.333 6.217 6.217 0 0 0 .759-3.003c0-1.76-.627-3.256-1.87-4.478-1.156-1.133-2.575-1.717-4.247-1.728zm14.228-1.319v13.455h5.996v1.562h-7.679v-15.017h1.683zm11.781 0v13.455h5.996v1.562h-7.68v-15.017h1.684zm17.875 1.561h-6.096v4.456h5.931v1.562h-5.931v5.875h6.096v1.562h-7.777V159.85h7.777v1.563zm16.126-.33v2.08c-.638-.604-1.231-1.045-1.782-1.32a6.128 6.128 0 0 0-2.761-.671 5.793 5.793 0 0 0-3.158.924 6.143 6.143 0 0 0-2.222 2.465 6.408 6.408 0 0 0-.682 2.871c0 1.859.692 3.389 2.067 4.577 1.199 1.046 2.542 1.562 4.004 1.562 1.617 0 3.125-.659 4.533-1.979v2.091c-1.419.979-2.926 1.463-4.521 1.463a7.593 7.593 0 0 1-3.599-.902 7.66 7.66 0 0 1-3.3-3.279 7.553 7.553 0 0 1-.88-3.553c0-1.364.341-2.641 1.022-3.84a7.944 7.944 0 0 1 2.805-2.86 7.717 7.717 0 0 1 4.039-1.11c1.541-.004 3.016.491 4.435 1.481zm8.399.33v13.455h-1.683v-13.455h-3.631v-1.562h8.966v1.562h-3.652zm9.25-1.561v15.017h-1.683v-15.017h1.683zm12.577-.254a7.419 7.419 0 0 1 3.885 1.045 7.758 7.758 0 0 1 2.85 2.838c.715 1.188 1.066 2.486 1.066 3.896 0 1.375-.34 2.663-1.022 3.84s-1.617 2.123-2.815 2.827a7.788 7.788 0 0 1-4.049 1.1 7.667 7.667 0 0 1-3.884-1.056c-1.221-.715-2.167-1.661-2.851-2.849-.67-1.188-1.012-2.508-1.012-3.961 0-2.135.825-3.982 2.477-5.534 1.482-1.409 3.275-2.124 5.355-2.146zm-.011 1.573c-1.848-.011-3.389.704-4.632 2.146-1.001 1.154-1.496 2.485-1.496 3.972 0 1.728.572 3.202 1.727 4.423 1.178 1.243 2.619 1.859 4.347 1.859a6.123 6.123 0 0 0 3.146-.858 5.988 5.988 0 0 0 2.268-2.333 6.217 6.217 0 0 0 .759-3.003c0-1.76-.627-3.256-1.87-4.478-1.158-1.133-2.576-1.717-4.249-1.728zm12.545 13.697v-15.644l11.706 12.254v-11.627h1.684v15.698l-11.705-12.256v11.574h-1.685v.001zm26.958-12.927l-1.32.869c-.274-.451-.539-.781-.78-.99-.484-.43-1.078-.649-1.793-.649-.693 0-1.276.209-1.749.638-.495.43-.737.99-.737 1.685 0 .659.308 1.198.935 1.616.353.231 1.222.66 2.607 1.266 1.089.484 1.893 1.001 2.41 1.54.66.704.99 1.573.99 2.606 0 1.397-.528 2.553-1.573 3.467-.892.77-1.958 1.154-3.201 1.154-1.221 0-2.245-.352-3.047-1.056-.781-.671-1.31-1.616-1.584-2.827l1.628-.451c.143.683.352 1.199.605 1.551.582.804 1.408 1.211 2.463 1.211.848 0 1.552-.286 2.135-.848.583-.561.88-1.265.88-2.111 0-.891-.418-1.606-1.243-2.135-.352-.23-1.242-.66-2.662-1.297-2.025-.914-3.037-2.146-3.037-3.709 0-1.265.494-2.267 1.496-3.003.793-.583 1.694-.868 2.707-.868 1.68-.002 2.979.779 3.87 2.341zm60.996-57.475c0-2.186-1.465-3.279-4.398-3.279-2.935 0-6.186 1.667-9.75 5.003-3.566 3.335-7.45 8.714-11.648 16.133-4.197 7.418-6.296 12.798-6.296 16.133 0 1.382.459 2.069 1.379 2.069 3.337 0 9.288-5.086 17.86-15.269 8.57-10.178 12.853-17.11 12.853-20.79m-72.688 33.818c2.879-1.493 5.494-2.243 7.854-2.243 2.356 0 4.112.086 5.263.259s2.815 1.063 5.002 2.675c2.302 1.725 5.75 4.774 10.354 9.146 8.514 8.511 14.896 12.769 19.152 12.769 2.07-.231 3.652-.777 4.744-1.639 1.093-.863 1.41-1.928.951-3.193-.691-2.531-2.07-4.543-4.141-6.039-.462-.461-.348-.834.343-1.123.691-.287 1.209-.314 1.556-.086 3.334 1.612 5.002 4.371 5.002 8.281 0 1.842-.633 3.711-1.896 5.608-1.268 1.899-2.878 3.251-4.831 4.056-1.956.805-3.683 1.206-5.179 1.206l-3.279-.515c-1.953-.577-4.227-2.129-6.814-4.661-2.588-2.529-5.377-5.491-8.368-8.884-2.992-3.396-4.948-5.639-5.867-6.73s-1.524-1.811-1.812-2.156-.832-.978-1.638-1.896c-.808-.922-1.44-1.527-1.899-1.814s-1.064-.719-1.812-1.291c-.75-.578-1.41-.979-1.983-1.21-1.381-.573-3.105-.86-5.179-.86-2.069 0-4.284.803-6.642 2.416-2.359 1.609-3.825 3.42-4.398 5.436-.576 2.012-1.095 3.421-1.555 4.227-.919 1.265-1.842 1.496-2.762.69-.918-.806-1.381-1.524-1.381-2.159 0-.629.403-1.607 1.209-2.931.805-1.324 3.393-4.315 7.764-8.974s7.736-7.996 10.096-10.01c2.356-2.011 6.441-5.604 12.249-10.781 5.81-5.179 10.556-9.262 14.236-12.251-15.874 0-24.675 1.208-26.397 3.625-1.037 1.265-1.929 1.783-2.676 1.552-.75-.23-.718-.748.083-1.552.808-.805 2.302-3.106 4.488-6.902.345.23 2.187.344 5.521.344l22.947-.517c.922 0 1.729.662 2.416 1.983.691 1.323 1.096 2.502 1.209 3.538-14.955 10.696-23.352 16.796-25.193 18.291-1.837 1.492-7.416 6.263-16.737 14.315zm-68.933-16.22h3.885c1.896 0 4.17-.401 6.813-1.207 6.558-1.955 10.815-5.635 12.771-11.043.574-1.611.861-3.135.861-4.572s-.46-2.472-1.379-3.106c-.922-.632-1.729-.948-2.416-.948-7.477.115-14.322 7.074-20.535 20.876zm-1.379 3.452c-1.729 4.485-2.588 8.656-2.588 12.508 0 3.856 2.355 5.781 7.073 5.781 1.727 0 3.97-.515 6.729-1.551 4.485-1.496 9.144-4.371 13.978-8.628 9.821-8.653 17.479-19.832 25.407-30.196-1.035 0-4.143.289-9.318.864-1.15 0-.719-.92 1.296-2.761 2.011-1.841 3.421-2.762 4.226-2.762h1.207l5.348.174c4.488-6.097 8.974-14.092 13.462-23.985 1.034-.116 2.644-.776 4.831-1.983 2.184-1.208 3.767-2.301 4.744-3.279.979-.978 1.61-1.467 1.897-1.467s.433.145.433.432-.459.948-1.379 1.983c-.922 1.035-3.192 4.457-6.817 10.267a188.122 188.122 0 0 0-9.921 18.032h13.978c1.151 0 1.783.173 1.897.517.113.346-.26.662-1.123.949-.861.288-1.666.547-2.416.777-.746.229-2.387.459-4.917.691-5.636.344-9.115 1.465-10.438 3.364-1.322 1.899-3.594 6.757-6.816 14.58-5.981 14.495-6.9 21.741-2.762 21.741 3.569 0 10.125-5.522 19.672-16.565l3.278-4.14c.231.345.347.892.347 1.638 0 .75-.633 1.983-1.897 3.711-10.583 13.573-20.131 20.358-28.646 20.358-2.76 0-4.143-1.092-4.143-3.275 0-2.764 2.246-8.628 6.73-17.602l9.318-20.878c-9.643 11.721-19.658 27.039-32.139 35.889-6.327 4.487-12.768 6.729-19.326 6.729-8.511 0-12.768-3.105-12.768-9.318 0-4.945 2.646-11.791 7.937-20.532 2.992-4.716 7.246-9.117 12.771-13.199 5.52-4.084 10.812-6.126 15.875-6.126 5.059 0 7.591 2.415 7.591 7.248 0 5.061-1.983 8.885-5.954 11.473s-8.455 4.658-13.458 6.213c-5.002 1.55-9.404 2.328-13.199 2.328zm-137.825-3.452h3.882c1.898 0 4.17-.401 6.815-1.207 6.558-1.955 10.813-5.635 12.769-11.043.575-1.611.864-3.135.864-4.572s-.461-2.472-1.382-3.106c-.919-.632-1.725-.948-2.416-.948-7.474.115-14.321 7.074-20.532 20.876zm-1.38 3.452c-1.726 4.485-2.588 8.656-2.588 12.508 0 3.856 2.358 5.781 7.075 5.781 1.726 0 3.968-.515 6.729-1.551 4.487-1.496 9.145-4.371 13.977-8.628 2.59-2.283 4.933-4.532 7.027-6.75a449.45 449.45 0 0 1 2.42-5.417c.978-2.125 2.56-5.636 4.746-10.525 2.186-4.888 4.025-8.827 5.521-11.816 5.867-11.159 9.95-18.808 12.251-22.95 5.406-9.777 11.905-18.175 19.498-25.191 7.592-7.018 15.069-10.527 22.431-10.527 1.84 0 3.479.489 4.918 1.467 1.438.978 2.156 2.388 2.156 4.229v5.003c0 .46-.259.689-.777.689-.517 0-.776-.114-.776-.344 0-3.106-2.186-4.659-6.557-4.659s-8.628.834-12.769 2.501c-4.141 1.669-7.707 4.113-10.698 7.334-2.991 3.22-6.154 7.418-9.49 12.595-7.592 11.732-16.565 31.46-26.917 59.184 2.645-3.566 5.119-6.673 7.418-9.319l6.731-7.764c8.972-9.202 15.931-13.804 20.877-13.804 2.531 0 3.796.978 3.796 2.934 0 1.496-.46 3.049-1.38 4.659a365.006 365.006 0 0 0-1.811 3.193c-.288.516-.518.891-.691 1.121-.172.228-.432.259-.776.087-.345-.174-.518-.375-.518-.604 0-2.186-1.783-3.278-5.349-3.278s-8.11 2.875-13.631 8.626c2.416 13.229 4.773 21.627 7.075 25.193.921 1.495 2.588 2.241 5.003 2.241 3.837-.102 10.156-5.521 18.954-16.252.13-.56.379-1.062.761-1.519 8.168-10.124 14.436-18.35 18.807-24.676 5.753-.805 9.089-1.61 10.008-2.415.919-.805 1.496-1.208 1.725-1.208.23 0 .375.23.432.689.059.461-.26 1.094-.947 1.899-.691.805-4.543 7.65-11.561 20.532 3.106-4.713 7.045-9.373 11.817-13.976 4.775-4.601 8.859-6.902 12.252-6.902 3.395 0 5.608 1.439 6.646 4.314.46.575.688 1.208.688 1.899 0 .689-.115 1.581-.347 2.674-.228 1.092-.459 1.983-.688 2.674-1.265 2.875-2.187 4.603-2.761 5.177-.346.576-.922.918-1.728 1.035-.114-.117-.229-.23-.346-.345.23-1.265.346-2.416.346-3.452 0-5.292-1.639-7.937-4.918-7.937-3.278 0-7.937 3.479-13.977 10.438-6.039 6.959-10.611 14.409-13.716 22.345l-3.625 9.662c-.689 0-2.07.346-4.141 1.036-2.07.691-3.164 1.037-3.277 1.037-.576 0-.603-.519-.086-1.555.518-1.037 1.496-3.279 2.934-6.728 1.438-3.453 3.191-7.824 5.262-13.117 4.025-10.121 6.729-16.793 8.11-20.014a256.584 256.584 0 0 0-13.411 15.588l-.006.027c-.173.747-1.007 2.042-2.501 3.884-5.637 7.132-10.928 12.653-15.875 16.565-3.105 2.529-6.211 3.794-9.317 3.794-3.104 0-5.579-.978-7.418-2.935-1.956-2.644-4.257-10.007-6.902-22.086-7.016 8.859-11.502 16.219-13.458 22.086-.576 1.383-2.129 2.156-4.66 2.33-2.529.172-3.796-.143-3.796-.947 0-.231.231-.836.689-1.813.461-.976 1.956-4.371 4.488-10.181l.031-.073a71.383 71.383 0 0 1-8.875 7.405c-6.328 4.488-12.771 6.73-19.327 6.73-8.512 0-12.768-3.105-12.768-9.318 0-4.945 2.646-11.791 7.937-20.532 2.991-4.716 7.248-9.117 12.769-13.199 5.52-4.084 10.812-6.126 15.874-6.126s7.591 2.415 7.591 7.248c0 5.061-1.983 8.885-5.952 11.473-3.97 2.588-8.455 4.658-13.46 6.213-5.002 1.556-9.401 2.334-13.198 2.334zm-7.636-59.873v-3.452c0-2.07-.805-3.68-2.415-4.831-3.336-3.106-7.764-4.658-13.286-4.658-7.592 0-13.115 2.645-16.565 7.937-2.071 3.106-3.106 6.011-3.106 8.713 0 2.704.662 5.608 1.985 8.714 1.323 3.105 5.06 8.455 11.216 16.047 6.152 7.591 9.979 13.344 11.473 17.254 1.496 3.912 2.243 7.189 2.243 9.837 0 7.36-2.991 13.804-8.972 19.323-3.796 3.568-8.253 6.356-13.372 8.369-5.119 2.014-10.727 3.02-16.824 3.02-6.096 0-12.192-1.553-18.289-4.658-6.097-3.105-9.895-7.822-11.389-14.15-.23-1.265-.346-2.901-.346-4.916 0-2.012.662-4.803 1.985-8.369 1.322-3.566 3.422-6.441 6.297-8.629.116-.113.346 0 .691.347.689.577.805 1.092.346 1.556-2.187 2.528-3.279 5.403-3.279 8.625 0 4.256 1.323 8.34 3.968 12.252 2.645 3.68 6.327 6.728 11.043 9.146 5.176 2.644 10.525 3.967 16.047 3.967 8.167 0 14.207-2.989 18.118-8.974 2.186-3.566 3.279-7.273 3.279-11.129 0-3.854-.691-7.707-2.071-11.559-1.38-3.854-4.228-9.376-8.542-16.565-4.314-7.19-6.7-11.187-7.159-11.993-2.301-4.37-3.452-8.713-3.452-13.027s1.351-8.369 4.055-12.164c2.702-3.796 6.183-6.788 10.438-8.972 4.716-2.415 9.605-3.625 14.666-3.625 7.132 0 12.942 2.474 17.427 7.42.577 1.035.864 2.501.864 4.399s-.402 3.538-1.208 4.918c-2.991 4.371-4.889 7.994-5.694 10.87-1.61 1.035-2.702 1.208-3.279.519 2.072-4.142 3.107-7.997 3.107-11.562zm308.303 54.871c.231.229.347.69.347 1.379 0 .69-.806 2.127-2.416 4.314-10.238 13.572-19.729 20.359-28.471 20.359-2.762 0-4.141-1.092-4.141-3.276 0-4.028 2.242-9.55 6.729-16.563-4.025 4.252-8.629 8.597-13.805 13.025-5.176 4.428-10.006 6.643-14.492 6.643-2.072 0-3.105-1.266-3.105-3.795 0-.576.056-.978.173-1.209.805-6.555 3.452-13.457 7.937-20.705 8.974-14.495 18.289-21.741 27.955-21.741h19.839c.577 0 .864.23.864.689 0 .921-.518 1.38-1.552 1.38-1.61 0-3.625 1.869-6.04 5.608-2.416 3.739-5.607 9.487-9.578 17.256-3.967 7.765-5.949 12.653-5.949 14.665 0 2.014.805 3.02 2.416 3.02 2.644 0 6.326-2.301 11.042-6.9 2.529-2.646 4.427-4.717 5.691-6.212a337.186 337.186 0 0 1 2.504-2.935c.4-.459 1.751-2.127 4.052-5.002z" fill="#fff"/></svg>